REM DIRINDEX 1\2,1\3,1\4,1\5
REM DIRNAME cjc005,folder01,folder02,folder03,folder04
TITLE ""
FILE "P1Q_t_0812-0821.mp3" MP3
  TRACK 01 AUDIO
    TITLE "3:cjc005_3340"
    INDEX 01 00:00:00
  TRACK 02 AUDIO
    TITLE "0:"
    INDEX 01 00:01:01
  TRACK 03 AUDIO
    TITLE "4:cjc005_3341"
    INDEX 01 00:01:34
  TRACK 04 AUDIO
    TITLE "0:"
    INDEX 01 00:02:38
  TRACK 05 AUDIO
    TITLE "5:cjc005_3342"
    INDEX 01 00:02:67
  TRACK 06 AUDIO
    TITLE "0:"
    INDEX 01 00:06:61
  TRACK 07 AUDIO
    TITLE "3:cjc005_3343"
    INDEX 01 00:07:33
  TRACK 08 AUDIO
    TITLE "0:"
    INDEX 01 00:08:46
  TRACK 09 AUDIO
    TITLE "4:cjc005_3344"
    INDEX 01 00:09:06
  TRACK 10 AUDIO
    TITLE "0:"
    INDEX 01 00:10:33
  TRACK 11 AUDIO
    TITLE "5:cjc005_3345"
    INDEX 01 00:10:63
  TRACK 12 AUDIO
    TITLE "0:"
    INDEX 01 00:14:23
  TRACK 13 AUDIO
    TITLE "3:cjc005_3346"
    INDEX 01 00:14:72
  TRACK 14 AUDIO
    TITLE "0:"
    INDEX 01 00:16:14
  TRACK 15 AUDIO
    TITLE "4:cjc005_3347"
    INDEX 01 00:16:34
  TRACK 16 AUDIO
    TITLE "0:"
    INDEX 01 00:17:41
  TRACK 17 AUDIO
    TITLE "5:cjc005_3348"
    INDEX 01 00:17:70
  TRACK 18 AUDIO
    TITLE "0:"
    INDEX 01 00:21:47
  TRACK 19 AUDIO
    TITLE "3:cjc005_3349"
    INDEX 01 00:22:19
  TRACK 20 AUDIO
    TITLE "0:"
    INDEX 01 00:23:38
  TRACK 21 AUDIO
    TITLE "4:cjc005_3350"
    INDEX 01 00:23:61
  TRACK 22 AUDIO
    TITLE "0:"
    INDEX 01 00:25:03
  TRACK 23 AUDIO
    TITLE "5:cjc005_3351"
    INDEX 01 00:25:27
  TRACK 24 AUDIO
    TITLE "0:"
    INDEX 01 00:28:47
  TRACK 25 AUDIO
    TITLE "3:cjc005_3352"
    INDEX 01 00:29:25
  TRACK 26 AUDIO
    TITLE "0:"
    INDEX 01 00:30:55
  TRACK 27 AUDIO
    TITLE "4:cjc005_3353"
    INDEX 01 00:31:06
  TRACK 28 AUDIO
    TITLE "0:"
    INDEX 01 00:32:19
  TRACK 29 AUDIO
    TITLE "5:cjc005_3354"
    INDEX 01 00:32:43
  TRACK 30 AUDIO
    TITLE "0:"
    INDEX 01 00:36:52
  TRACK 31 AUDIO
    TITLE "3:cjc005_3355"
    INDEX 01 00:37:32
  TRACK 32 AUDIO
    TITLE "0:"
    INDEX 01 00:38:39
  TRACK 33 AUDIO
    TITLE "4:cjc005_3356"
    INDEX 01 00:38:63
  TRACK 34 AUDIO
    TITLE "0:"
    INDEX 01 00:40:13
  TRACK 35 AUDIO
    TITLE "5:cjc005_3357"
    INDEX 01 00:40:42
  TRACK 36 AUDIO
    TITLE "0:"
    INDEX 01 00:43:19
  TRACK 37 AUDIO
    TITLE "3:cjc005_3358"
    INDEX 01 00:43:72
  TRACK 38 AUDIO
    TITLE "0:"
    INDEX 01 00:45:14
  TRACK 39 AUDIO
    TITLE "4:cjc005_3359"
    INDEX 01 00:45:43
  TRACK 40 AUDIO
    TITLE "0:"
    INDEX 01 00:46:47
  TRACK 41 AUDIO
    TITLE "5:cjc005_3360"
    INDEX 01 00:46:72
  TRACK 42 AUDIO
    TITLE "0:"
    INDEX 01 00:50:56
  TRACK 43 AUDIO
    TITLE "3:cjc005_3361"
    INDEX 01 00:51:28
  TRACK 44 AUDIO
    TITLE "0:"
    INDEX 01 00:52:41
  TRACK 45 AUDIO
    TITLE "4:cjc005_3362"
    INDEX 01 00:52:65
  TRACK 46 AUDIO
    TITLE "0:"
    INDEX 01 00:53:70
  TRACK 47 AUDIO
    TITLE "5:cjc005_3363"
    INDEX 01 00:54:19
  TRACK 48 AUDIO
    TITLE "0:"
    INDEX 01 00:57:29
  TRACK 49 AUDIO
    TITLE "3:cjc005_3364"
    INDEX 01 00:58:07
  TRACK 50 AUDIO
    TITLE "0:"
    INDEX 01 00:59:45
  TRACK 51 AUDIO
    TITLE "4:cjc005_3365"
    INDEX 01 01:00:00
  TRACK 52 AUDIO
    TITLE "0:"
    INDEX 01 01:01:11
  TRACK 53 AUDIO
    TITLE "5:cjc005_3366"
    INDEX 01 01:01:36
  TRACK 54 AUDIO
    TITLE "0:"
    INDEX 01 01:06:06
  TRACK 55 AUDIO
    TITLE "3:cjc005_3367"
    INDEX 01 01:06:65
  TRACK 56 AUDIO
    TITLE "0:"
    INDEX 01 01:07:74
  TRACK 57 AUDIO
    TITLE "4:cjc005_3368"
    INDEX 01 01:08:25
  TRACK 58 AUDIO
    TITLE "0:"
    INDEX 01 01:09:18
  TRACK 59 AUDIO
    TITLE "5:cjc005_3369"
    INDEX 01 01:09:46
  TRACK 60 AUDIO
    TITLE "0:"
    INDEX 01 01:13:38
